<svg width="24" height="24" viewBox="0 0 24 24" fill="none" xmlns="http://www.w3.org/2000/svg">
<path d="M19 4H18V2H16V4H8V2H6V4H5C3.89 4 3.01 4.9 3.01 6L3 20C3 21.1 3.89 22 5 22H19C20.1 22 21 21.1 21 20V6C21 4.9 20.1 4 19 4ZM19 20H5V10H19V20ZM19 8H5V6H19V8Z" fill="#255CED"/>
<path opacity="0.3" d="M19 8H5V6H19V8Z" fill="#5685FF"/>
<path d="M9.2603 17.9091C8.73189 17.9072 8.27545 17.785 7.89098 17.5426C7.50651 17.3002 7.21011 16.9508 7.00178 16.4943C6.79344 16.0379 6.69022 15.4905 6.69212 14.8523C6.69401 14.2121 6.79818 13.6686 7.00462 13.2216C7.21295 12.7746 7.5084 12.4347 7.89098 12.2017C8.27545 11.9687 8.73189 11.8523 9.2603 11.8523C9.78871 11.8523 10.2451 11.9697 10.6296 12.2045C11.0141 12.4375 11.3105 12.7775 11.5188 13.2244C11.7272 13.6714 11.8304 14.214 11.8285 14.8523C11.8285 15.4943 11.7243 16.0436 11.516 16.5C11.3076 16.9564 11.0112 17.3059 10.6268 17.5483C10.2442 17.7888 9.78871 17.9091 9.2603 17.9091ZM9.2603 16.625C9.53303 16.625 9.75651 16.483 9.93075 16.1989C10.1069 15.9129 10.194 15.464 10.1921 14.8523C10.1921 14.4527 10.1523 14.1259 10.0728 13.8722C9.99325 13.6184 9.8834 13.4309 9.74325 13.3097C9.6031 13.1866 9.44212 13.125 9.2603 13.125C8.98757 13.125 8.76503 13.2633 8.59268 13.5398C8.42034 13.8163 8.33227 14.2538 8.32848 14.8523C8.32659 15.2595 8.36541 15.5947 8.44496 15.858C8.5245 16.1193 8.63435 16.3125 8.7745 16.4375C8.91655 16.5625 9.07848 16.625 9.2603 16.625ZM14.8427 11.8523C15.1817 11.8523 15.5027 11.9062 15.8058 12.0142C16.1088 12.1203 16.3768 12.2879 16.6097 12.517C16.8446 12.7462 17.0283 13.0455 17.1609 13.4148C17.2953 13.7822 17.3635 14.2273 17.3654 14.75C17.3673 15.2273 17.3076 15.6562 17.1864 16.0369C17.0671 16.4157 16.8957 16.7386 16.6722 17.0057C16.4506 17.2727 16.1836 17.4773 15.8711 17.6193C15.5605 17.7595 15.2139 17.8295 14.8313 17.8295C14.4014 17.8295 14.0236 17.7472 13.6978 17.5824C13.372 17.4176 13.1126 17.196 12.9194 16.9176C12.7262 16.6392 12.6135 16.3295 12.5813 15.9886H14.1381C14.176 16.1648 14.2594 16.2926 14.3881 16.3722C14.5169 16.4498 14.6647 16.4886 14.8313 16.4886C15.1647 16.4886 15.408 16.3447 15.5614 16.0568C15.7167 15.767 15.7953 15.3807 15.7972 14.8977H15.7631C15.6893 15.0758 15.5775 15.2282 15.4279 15.3551C15.2783 15.482 15.104 15.5795 14.9052 15.6477C14.7063 15.7159 14.4961 15.75 14.2745 15.75C13.9241 15.75 13.6173 15.6714 13.354 15.5142C13.0908 15.3551 12.8853 15.1383 12.7376 14.8636C12.5898 14.5871 12.515 14.2727 12.5131 13.9205C12.5112 13.5076 12.6088 13.1458 12.8058 12.8352C13.0027 12.5246 13.2764 12.2831 13.6268 12.1108C13.9772 11.9384 14.3825 11.8523 14.8427 11.8523ZM14.854 13.0455C14.6969 13.0455 14.5567 13.0814 14.4336 13.1534C14.3124 13.2254 14.2167 13.3229 14.1467 13.446C14.0785 13.5691 14.0453 13.7083 14.0472 13.8636C14.0491 14.0189 14.0842 14.1581 14.1523 14.2812C14.2224 14.4044 14.3171 14.5019 14.4364 14.5739C14.5576 14.6458 14.6969 14.6818 14.854 14.6818C14.9696 14.6818 15.0766 14.6619 15.1751 14.6222C15.2736 14.5805 15.3588 14.5227 15.4308 14.4489C15.5046 14.3731 15.5614 14.286 15.6012 14.1875C15.6429 14.0871 15.6628 13.9792 15.6609 13.8636C15.659 13.7083 15.623 13.5691 15.5529 13.446C15.4828 13.3229 15.3872 13.2254 15.266 13.1534C15.1448 13.0814 15.0075 13.0455 14.854 13.0455Z" fill="#255CED"/>
</svg>
