<svg width="133" height="140" viewBox="0 0 133 140" fill="none" xmlns="http://www.w3.org/2000/svg">
<g id="Group 6695">
<path id="Vector" style="mix-blend-mode:screen" opacity="0.8" d="M127.276 33.0817C130.225 31.0594 132.236 28.8653 131.767 28.1812C131.298 27.497 128.527 28.5819 125.577 30.6043C122.628 32.6267 120.618 34.8207 121.087 35.5048C121.556 36.189 124.327 35.1041 127.276 33.0817Z" fill="url(#paint0_radial_1402_138)"/>
<path id="Vector_2" style="mix-blend-mode:screen" opacity="0.8" d="M101.587 36.4768C104.204 34.0398 105.867 31.5721 105.302 30.965C104.736 30.3579 102.156 31.8414 99.5394 34.2783C96.9224 36.7153 95.2592 39.1831 95.8245 39.7901C96.3898 40.3972 98.9696 38.9138 101.587 36.4768Z" fill="url(#paint1_radial_1402_138)"/>
<path id="Vector_3" style="mix-blend-mode:screen" opacity="0.8" d="M94.6361 9.49568C93.7931 12.9706 92.4565 15.6318 91.6508 15.4343C90.8451 15.2369 90.8744 12.2636 91.7175 8.78736C92.5605 5.31113 93.8971 2.65127 94.7028 2.8487C95.5085 3.04612 95.4791 6.02078 94.6361 9.49568Z" fill="url(#paint2_radial_1402_138)"/>
<path id="Vector_4" style="mix-blend-mode:screen" opacity="0.8" d="M65.2864 4.18359C66.1057 4.05411 66.3175 1.08576 65.7593 -2.4464C65.2011 -5.97856 64.0844 -8.73698 63.265 -8.60749C62.4457 -8.47801 62.2339 -5.50967 62.7921 -1.97751C63.3503 1.55465 64.467 4.31307 65.2864 4.18359Z" fill="url(#paint3_radial_1402_138)"/>
<path id="Vector_5" style="mix-blend-mode:screen" opacity="0.8" d="M53.6437 34.7715C54.3621 34.3567 53.495 31.5099 51.707 28.413C49.919 25.3161 47.8872 23.1418 47.1688 23.5566C46.4504 23.9714 47.3174 26.8182 49.1054 29.9151C50.8934 33.0119 52.9253 35.1862 53.6437 34.7715Z" fill="url(#paint4_radial_1402_138)"/>
<path id="Vector_6" style="mix-blend-mode:screen" opacity="0.8" d="M122.447 65.917C126.023 65.917 128.922 65.0761 128.922 64.0388C128.922 63.0015 126.023 62.1606 122.447 62.1606C118.871 62.1606 115.972 63.0015 115.972 64.0388C115.972 65.0761 118.871 65.917 122.447 65.917Z" fill="url(#paint5_radial_1402_138)"/>
<path id="Vector_7" style="mix-blend-mode:screen" opacity="0.8" d="M102.112 52.6432C99.9537 53.889 97.9769 54.4933 97.6821 53.9918C97.3873 53.4902 98.9079 52.0762 101.065 50.8303C103.222 49.5844 105.2 48.9802 105.495 49.4804C105.79 49.9806 104.269 51.3973 102.112 52.6432Z" fill="url(#paint6_radial_1402_138)"/>
<path id="Vector_8" style="mix-blend-mode:screen" opacity="0.8" d="M106.736 86.029C107.051 85.5449 105.614 84.0509 103.525 82.692C101.437 81.3332 99.4886 80.6242 99.1736 81.1083C98.8586 81.5924 100.296 83.0864 102.385 84.4452C104.473 85.804 106.421 86.5131 106.736 86.029Z" fill="url(#paint7_radial_1402_138)"/>
<path id="Vector_9" style="mix-blend-mode:screen" opacity="0.8" d="M88.4126 92.0459C87.0947 89.933 86.4224 87.9708 86.9133 87.6653C87.4042 87.3598 88.8702 88.8245 90.1881 90.9388C91.506 93.053 92.1797 95.0139 91.6888 95.3194C91.1979 95.6249 89.7319 94.1602 88.4126 92.0459Z" fill="url(#paint8_radial_1402_138)"/>
<path id="Vector_10" style="mix-blend-mode:screen" opacity="0.8" d="M70.0589 87.4337C70.5524 84.9913 71.4115 83.1051 71.9784 83.2198C72.5453 83.3345 72.604 85.4061 72.1118 87.8486C71.6196 90.291 70.7592 92.1772 70.1923 92.0624C69.6254 91.9477 69.5653 89.8761 70.0589 87.4337Z" fill="url(#paint9_radial_1402_138)"/>
<path id="Vector_11" style="mix-blend-mode:screen" opacity="0.8" d="M106.761 103.483C105.65 102.372 104.958 101.261 105.215 101.003C105.473 100.746 106.584 101.438 107.695 102.549C108.806 103.661 109.503 104.772 109.236 105.032C108.969 105.292 107.874 104.596 106.761 103.483Z" fill="url(#paint10_radial_1402_138)"/>
<path id="Vector_12" style="mix-blend-mode:screen" opacity="0.8" d="M49.0755 82.5097C50.5749 81.644 51.9902 81.2878 52.2356 81.7093C52.481 82.1309 51.4659 83.1767 49.9679 84.0491C48.4699 84.9214 47.0519 85.2709 46.8065 84.8494C46.5611 84.4279 47.5735 83.3767 49.0755 82.5097Z" fill="url(#paint11_radial_1402_138)"/>
<path id="Vector_13" style="mix-blend-mode:screen" opacity="0.8" d="M84.1303 36.5566C84.6784 34.1149 84.6639 32.0325 84.0979 31.9054C83.5319 31.7783 82.6287 33.6547 82.0805 36.0965C81.5324 38.5382 81.5469 40.6206 82.1129 40.7477C82.6789 40.8747 83.5821 38.9983 84.1303 36.5566Z" fill="url(#paint12_radial_1402_138)"/>
<path id="Vector_14" style="mix-blend-mode:screen" opacity="0.8" d="M70.4688 25.24C71.0464 25.24 71.5146 23.2202 71.5146 20.7286C71.5146 18.2371 71.0464 16.2173 70.4688 16.2173C69.8913 16.2173 69.423 18.2371 69.423 20.7286C69.423 23.2202 69.8913 25.24 70.4688 25.24Z" fill="url(#paint13_radial_1402_138)"/>
<path id="Vector_15" style="mix-blend-mode:screen" opacity="0.8" d="M65.1529 47.7101C65.6791 47.4721 65.2733 45.4388 64.2464 43.1687C63.2195 40.8986 61.9604 39.2513 61.4342 39.4894C60.9079 39.7274 61.3138 41.7607 62.3407 44.0308C63.3676 46.3009 64.6266 47.9482 65.1529 47.7101Z" fill="url(#paint14_radial_1402_138)"/>
<path id="Vector_16" style="mix-blend-mode:screen" opacity="0.8" d="M48.8097 67.626C51.0198 67.626 52.8115 67.2551 52.8115 66.7976C52.8115 66.3401 51.0198 65.9692 48.8097 65.9692C46.5995 65.9692 44.8079 66.3401 44.8079 66.7976C44.8079 67.2551 46.5995 67.626 48.8097 67.626Z" fill="url(#paint15_radial_1402_138)"/>
<path id="Vector_17" style="mix-blend-mode:screen" opacity="0.8" d="M36.5249 26.9421C38.287 28.7042 39.3835 30.4637 38.9753 30.8732C38.5671 31.2827 36.8077 30.1849 35.0455 28.4228C33.2834 26.6606 32.1869 24.9012 32.5951 24.493C33.0033 24.0848 34.7641 25.1813 36.5249 26.9421Z" fill="url(#paint16_radial_1402_138)"/>
<path id="Vector_18" style="mix-blend-mode:screen" opacity="0.8" d="M39.3366 49.8431C41.4255 51.2024 42.9075 52.6257 42.6487 53.0245C42.39 53.4234 40.4864 52.6444 38.3975 51.2904C36.3086 49.9365 34.8266 48.5065 35.0867 48.1077C35.3468 47.7088 37.2543 48.4838 39.3366 49.8431Z" fill="url(#paint17_radial_1402_138)"/>
<path id="Vector_19" style="mix-blend-mode:screen" opacity="0.8" d="M35.1995 86.6335C37.5418 85.4069 39.2012 83.9554 38.9059 83.3915C38.6106 82.8276 36.4724 83.3649 34.1301 84.5915C31.7878 85.8181 30.1284 87.2696 30.4236 87.8335C30.7189 88.3974 32.8571 87.8601 35.1995 86.6335Z" fill="url(#paint18_radial_1402_138)"/>
<path id="Vector_20" style="mix-blend-mode:screen" opacity="0.8" d="M44.5008 106.387C46.295 104.443 48.1265 103.219 48.5947 103.65C49.0629 104.081 47.9877 106.007 46.1936 107.95C44.3995 109.894 42.568 111.118 42.1011 110.688C41.6342 110.257 42.708 108.331 44.5008 106.387Z" fill="url(#paint19_radial_1402_138)"/>
<path id="Vector_21" style="mix-blend-mode:screen" opacity="0.8" d="M74.1355 100.47C74.2542 97.8285 74.8665 95.7102 75.5028 95.7396C76.139 95.7689 76.5566 97.9325 76.4365 100.574C76.3165 103.215 75.7055 105.333 75.0692 105.305C74.4329 105.277 74.0208 103.111 74.1355 100.47Z" fill="url(#paint20_radial_1402_138)"/>
<path id="Vector_22" style="mix-blend-mode:screen" opacity="0.8" d="M98.8993 121.412C99.6489 120.979 99.1849 118.772 97.8629 116.483C96.5409 114.193 94.8614 112.687 94.1118 113.12C93.3621 113.553 93.8261 115.76 95.1481 118.05C96.4702 120.34 98.1496 121.845 98.8993 121.412Z" fill="url(#paint21_radial_1402_138)"/>
<path id="Vector_23" style="mix-blend-mode:screen" opacity="0.15" d="M114.869 33.518C118.571 32.3975 120.663 28.4882 119.543 24.7863C118.422 21.0845 114.513 18.9918 110.811 20.1123C107.109 21.2328 105.017 25.1421 106.137 28.8439C107.258 32.5458 111.167 34.6384 114.869 33.518Z" fill="url(#paint22_radial_1402_138)"/>
<path id="Vector_24" style="mix-blend-mode:screen" opacity="0.2" d="M19.6722 12.2249C19.6725 14.0816 19.1221 15.8966 18.0908 17.4405C17.0594 18.9843 15.5934 20.1877 13.8781 20.8983C12.1629 21.609 10.2754 21.795 8.45436 21.4328C6.63336 21.0707 4.96065 20.1766 3.64779 18.8638C2.33493 17.5509 1.4409 15.8782 1.07874 14.0572C0.716591 12.2362 0.902592 10.3487 1.61323 8.63341C2.32386 6.91813 3.52722 5.45212 5.07109 4.42077C6.61495 3.38943 8.42999 2.83909 10.2867 2.83936C12.7757 2.83971 15.1628 3.82865 16.9228 5.58871C18.6829 7.34876 19.6718 9.73581 19.6722 12.2249Z" fill="url(#paint23_radial_1402_138)"/>
<path id="Vector_25" style="mix-blend-mode:screen" opacity="0.2" d="M47.9903 37.89C47.9903 38.8989 47.6911 39.8851 47.1306 40.724C46.5701 41.5628 45.7735 42.2166 44.8414 42.6027C43.9093 42.9888 42.8837 43.0898 41.8942 42.893C40.9047 42.6961 39.9958 42.2103 39.2824 41.4969C38.569 40.7836 38.0832 39.8747 37.8864 38.8852C37.6896 37.8957 37.7906 36.87 38.1767 35.938C38.5628 35.0059 39.2166 34.2092 40.0554 33.6487C40.8943 33.0882 41.8805 32.7891 42.8893 32.7891C44.2422 32.7891 45.5397 33.3265 46.4963 34.2831C47.4529 35.2397 47.9903 36.5372 47.9903 37.89Z" fill="url(#paint24_radial_1402_138)"/>
<path id="Vector_26" style="mix-blend-mode:screen" opacity="0.2" d="M21.9858 96.3919C21.9858 97.6164 21.6227 98.8133 20.9424 99.8314C20.2622 100.849 19.2953 101.643 18.1641 102.111C17.0329 102.58 15.7881 102.703 14.5872 102.464C13.3863 102.225 12.2832 101.635 11.4174 100.769C10.5517 99.9037 9.96205 98.8006 9.72317 97.5997C9.4843 96.3988 9.6069 95.1541 10.0755 94.0228C10.544 92.8916 11.3375 91.9248 12.3556 91.2445C13.3736 90.5643 14.5706 90.2012 15.795 90.2012C17.4369 90.2012 19.0115 90.8534 20.1725 92.0144C21.3335 93.1754 21.9858 94.75 21.9858 96.3919Z" fill="url(#paint25_radial_1402_138)"/>
<g id="Vector_27" filter="url(#filter0_d_1402_138)">
<path d="M61.7777 80.1572L49.5176 43.3247H58.1535L64.9832 64.7663L71.8142 43.3247H80.4501L68.19 80.1572H61.7777Z" fill="url(#paint26_linear_1402_138)"/>
</g>
<path id="Vector_28" d="M50.714 44.187H57.517L64.9777 67.6082L72.4397 44.187H79.2428L67.5562 79.2948H62.4006L50.714 44.187Z" fill="url(#paint27_linear_1402_138)"/>
<g id="Vector_29" filter="url(#filter1_d_1402_138)">
<path d="M86.1455 96.6014C84.4347 96.6033 82.7283 96.4272 81.0539 96.0758C79.4343 95.7387 77.8578 95.2201 76.3544 94.5298C74.9323 93.8787 73.5995 93.048 72.3887 92.058L71.8337 91.5991L75.7528 84.6227L76.5532 85.2763C77.8675 86.3422 79.3632 87.1623 80.9685 87.6974C82.6355 88.2669 84.3852 88.5572 86.1468 88.5564C88.1317 88.5564 89.6697 88.2296 90.7182 87.5853C91.652 87.0091 92.0935 86.2514 92.0935 85.2176V85.1936C92.0935 84.4866 91.9121 83.9571 91.5399 83.5729C91.0644 83.1053 90.477 82.7673 89.8338 82.5911C88.7937 82.2974 87.7354 82.0724 86.6657 81.9175L86.595 81.9068L86.5764 81.9001C86.502 81.8948 86.4282 81.8823 86.3563 81.8628L85.868 81.7961C83.4763 81.4199 81.4567 80.9384 79.8653 80.3674C78.1443 79.7407 76.6417 78.6287 75.5394 77.166C74.3389 75.6253 73.7399 73.4537 73.7399 70.7111V70.6871C73.7399 68.262 74.2975 66.1517 75.394 64.4083C76.4905 62.6648 78.1139 61.3069 80.1962 60.3945C82.2277 59.5061 84.7008 59.0605 87.5435 59.0605C88.9019 59.0659 90.2557 59.2184 91.5813 59.5154C92.9569 59.8207 94.2998 60.2585 95.5911 60.8227C96.8925 61.3896 98.1369 62.0792 99.3074 62.8823L99.9277 63.3065L96.3461 70.4697L95.5284 69.9054C94.2833 69.0306 92.926 68.3275 91.4932 67.8151C90.2258 67.3534 88.8896 67.1085 87.5408 67.0908C85.6813 67.0908 84.246 67.3856 83.2722 67.9685C82.4212 68.4808 82.0236 69.1397 82.0236 70.0428V70.0668C82.0236 70.8525 82.2277 71.4394 82.6453 71.8636C83.1468 72.3651 83.7645 72.7348 84.4434 72.9401C85.5948 73.2834 86.7637 73.5652 87.945 73.7845H87.9663H87.9863C88.017 73.7845 88.0477 73.7978 88.0784 73.8018C88.1655 73.8122 88.2519 73.8278 88.3371 73.8485C88.4519 73.8685 88.5626 73.8925 88.6693 73.9219C88.7325 73.9392 88.7966 73.953 88.8614 73.9632H88.8841C91.1517 74.4074 93.0806 74.9557 94.62 75.596C96.2657 76.286 97.6853 77.4232 98.7178 78.8788C99.8196 80.3995 100.379 82.4671 100.379 85.0242V85.0722C100.379 87.4733 99.8036 89.5636 98.6671 91.2923C97.5306 93.0211 95.8659 94.3604 93.7035 95.2608C91.6093 96.1572 89.0641 96.6014 86.1455 96.6014Z" fill="url(#paint28_linear_1402_138)"/>
</g>
<path id="Vector_30" d="M81.2332 95.2315C79.6768 94.909 78.162 94.4109 76.7179 93.7468C75.3623 93.1277 74.0921 92.3363 72.9388 91.3924L76.0069 85.9353C77.3991 87.0689 78.9855 87.9403 80.689 88.5071C82.445 89.1087 84.2886 89.4148 86.1448 89.4129C88.3013 89.4129 89.9754 89.0465 91.167 88.3137C92.3587 87.5809 92.9545 86.5467 92.9545 85.211V85.187C92.9545 84.2532 92.6877 83.5129 92.1541 82.966C91.5767 82.3922 90.8615 81.9765 90.0772 81.7588C88.9993 81.4526 87.9021 81.2186 86.7931 81.0584C86.7502 81.0433 86.7051 81.0352 86.6597 81.0344C86.6142 81.0337 86.5691 81.0256 86.5263 81.0104L85.9927 80.9384C83.6485 80.5676 81.7028 80.106 80.1554 79.5538C78.5885 78.9816 77.2215 77.9667 76.2203 76.6325C75.1416 75.2398 74.6023 73.2638 74.6023 70.7045V70.6805C74.6023 68.4101 75.1091 66.4701 76.1229 64.8605C77.1367 63.2509 78.6098 62.0237 80.5423 61.1789C82.4738 60.3331 84.8077 59.9107 87.5441 59.9116C88.8397 59.9159 90.131 60.0612 91.3951 60.3452C92.7165 60.6382 94.0063 61.059 95.2462 61.6017C96.4978 62.1461 97.6944 62.809 98.8198 63.5813L96.0185 69.1838C94.7098 68.2725 93.2844 67.5416 91.7806 67.0108C90.4216 66.5163 88.9888 66.2552 87.5427 66.2385C85.5151 66.2385 83.946 66.5724 82.8353 67.2402C81.7246 67.9081 81.1692 68.8459 81.1692 70.0535V70.0775C81.1692 71.0913 81.4587 71.8917 82.0376 72.4786C82.6378 73.0782 83.3755 73.522 84.1865 73.7712C85.3705 74.1255 86.5728 74.4154 87.7882 74.6396C87.8519 74.6553 87.9165 74.6673 87.9816 74.6756C88.0467 74.6837 88.1113 74.6957 88.175 74.7116C88.2711 74.7289 88.3644 74.7489 88.4525 74.773C88.5439 74.7976 88.6365 74.8176 88.7299 74.833C90.9531 75.2678 92.8082 75.7952 94.2951 76.415C95.7968 77.0416 97.0914 78.0792 98.0301 79.4084C99.0279 80.785 99.5268 82.6645 99.5268 85.0469V85.0949C99.5268 87.3315 99.0039 89.247 97.9581 90.8415C96.9123 92.436 95.3871 93.6512 93.3827 94.4871C91.3773 95.3248 88.9665 95.7433 86.1501 95.7424C84.4978 95.7441 82.8499 95.5729 81.2332 95.2315Z" fill="url(#paint29_linear_1402_138)"/>
<path id="Vector_31" style="mix-blend-mode:screen" d="M86.9556 79.4414C92.6272 63.7609 90.0207 48.4436 81.1338 45.2292C72.2468 42.0147 60.4448 52.1204 54.7731 67.8009C49.1014 83.4813 51.708 98.7987 60.5949 102.013C69.4819 105.228 81.2839 95.1218 86.9556 79.4414Z" fill="url(#paint30_radial_1402_138)"/>
<path id="Vector_32" style="mix-blend-mode:screen" d="M89.742 78.2845C105.189 31.7124 109.689 -8.70276 99.7927 -11.9853C89.8963 -15.2678 69.351 19.8253 53.9037 66.3974C38.4563 112.969 33.9565 153.385 43.8529 156.667C53.7494 159.95 74.2946 124.857 89.742 78.2845Z" fill="url(#paint31_radial_1402_138)"/>
<path id="Vector_33" style="mix-blend-mode:screen" d="M80.6742 75.599C90.244 49.5188 94.0458 26.9249 89.1658 25.1342C84.2857 23.3436 72.5718 43.0341 63.0019 69.1144C53.4321 95.1947 49.6303 117.789 54.5103 119.579C59.3904 121.37 71.1044 101.679 80.6742 75.599Z" fill="url(#paint32_radial_1402_138)"/>
<path id="Vector_34" style="mix-blend-mode:screen" d="M84.7735 70.0619C95.1715 41.7249 99.0289 17.0757 93.3895 15.0064C87.75 12.937 74.7491 34.2312 64.3512 62.5682C53.9533 90.9052 50.0958 115.554 55.7353 117.624C61.3747 119.693 74.3756 98.399 84.7735 70.0619Z" fill="url(#paint33_radial_1402_138)"/>
<path id="Vector_35" style="mix-blend-mode:screen" d="M85.494 73.4054C95.0879 47.2594 97.4437 24.0745 90.7558 21.6204C84.0678 19.1664 70.8687 38.3724 61.2748 64.5184C51.6808 90.6644 49.325 113.849 56.013 116.303C62.701 118.757 75.9 99.5513 85.494 73.4054Z" fill="url(#paint34_radial_1402_138)"/>
<path id="Vector_36" style="mix-blend-mode:screen" d="M85.0459 71.7626C98.3199 35.5875 104.074 4.42457 97.8977 2.1583C91.7215 -0.107962 75.9541 27.3806 62.68 63.5557C49.406 99.7309 43.652 130.894 49.8282 133.16C56.0043 135.426 71.7718 107.938 85.0459 71.7626Z" fill="url(#paint35_radial_1402_138)"/>
<g id="Group" opacity="0.9">
<path id="Vector_37" style="mix-blend-mode:screen" d="M82.958 72.0335C102.537 13.0049 114.198 -36.2438 109.004 -37.9665C103.81 -39.6893 83.7277 6.76615 64.1488 65.7947C44.5698 124.823 32.9085 174.072 38.1025 175.795C43.2965 177.517 63.379 131.062 82.958 72.0335Z" fill="url(#paint36_radial_1402_138)"/>
<path id="Vector_38" style="mix-blend-mode:screen" d="M79.1839 70.7821C94.25 25.3596 103.942 -12.299 100.832 -13.3306C97.7215 -14.3622 82.9867 21.6237 67.9207 67.0462C52.8546 112.469 43.1625 150.127 46.2728 151.159C49.3831 152.191 64.1179 116.205 79.1839 70.7821Z" fill="url(#paint37_radial_1402_138)"/>
<path id="Vector_39" style="mix-blend-mode:screen" d="M75.111 68.1395C57.9032 119.987 43.334 161.807 42.555 161.549C41.776 161.292 55.094 119.05 72.2897 67.2031C89.4854 15.3558 104.068 -26.4643 104.847 -26.2068C105.626 -25.9494 92.3133 16.2922 75.111 68.1395Z" fill="url(#paint38_radial_1402_138)"/>
</g>
</g>
<defs>
<filter id="filter0_d_1402_138" x="37.5176" y="32.3247" width="54.9326" height="60.8325" filterUnits="userSpaceOnUse" color-interpolation-filters="sRGB">
<feFlood flood-opacity="0" result="BackgroundImageFix"/>
<feColorMatrix in="SourceAlpha" type="matrix" values="0 0 0 0 0 0 0 0 0 0 0 0 0 0 0 0 0 0 127 0" result="hardAlpha"/>
<feOffset dy="1"/>
<feGaussianBlur stdDeviation="6"/>
<feComposite in2="hardAlpha" operator="out"/>
<feColorMatrix type="matrix" values="0 0 0 0 0 0 0 0 0 0 0 0 0 0 0 0 0 0 1 0"/>
<feBlend mode="normal" in2="BackgroundImageFix" result="effect1_dropShadow_1402_138"/>
<feBlend mode="normal" in="SourceGraphic" in2="effect1_dropShadow_1402_138" result="shape"/>
</filter>
<filter id="filter1_d_1402_138" x="59.8337" y="48.0605" width="52.5448" height="61.541" filterUnits="userSpaceOnUse" color-interpolation-filters="sRGB">
<feFlood flood-opacity="0" result="BackgroundImageFix"/>
<feColorMatrix in="SourceAlpha" type="matrix" values="0 0 0 0 0 0 0 0 0 0 0 0 0 0 0 0 0 0 127 0" result="hardAlpha"/>
<feOffset dy="1"/>
<feGaussianBlur stdDeviation="6"/>
<feComposite in2="hardAlpha" operator="out"/>
<feColorMatrix type="matrix" values="0 0 0 0 0 0 0 0 0 0 0 0 0 0 0 0 0 0 1 0"/>
<feBlend mode="normal" in2="BackgroundImageFix" result="effect1_dropShadow_1402_138"/>
<feBlend mode="normal" in="SourceGraphic" in2="effect1_dropShadow_1402_138" result="shape"/>
</filter>
<radialGradient id="paint0_radial_1402_138" cx="0" cy="0" r="1" gradientUnits="userSpaceOnUse" gradientTransform="translate(126.541 31.896) rotate(80.3352) scale(1.63659 5.96358)">
<stop stop-color="#FFC71D"/>
<stop offset="0.08" stop-color="#DCAC19"/>
<stop offset="0.22" stop-color="#A37F12"/>
<stop offset="0.36" stop-color="#71580D"/>
<stop offset="0.5" stop-color="#483808"/>
<stop offset="0.64" stop-color="#292005"/>
<stop offset="0.77" stop-color="#120E02"/>
<stop offset="0.89" stop-color="#050401"/>
<stop offset="1"/>
</radialGradient>
<radialGradient id="paint1_radial_1402_138" cx="0" cy="0" r="1" gradientUnits="userSpaceOnUse" gradientTransform="translate(100.749 35.4436) rotate(71.8151) scale(1.6364 5.96289)">
<stop stop-color="#FFC71D"/>
<stop offset="0.08" stop-color="#DCAC19"/>
<stop offset="0.22" stop-color="#A37F12"/>
<stop offset="0.36" stop-color="#71580D"/>
<stop offset="0.5" stop-color="#483808"/>
<stop offset="0.64" stop-color="#292005"/>
<stop offset="0.77" stop-color="#120E02"/>
<stop offset="0.89" stop-color="#050401"/>
<stop offset="1"/>
</radialGradient>
<radialGradient id="paint2_radial_1402_138" cx="0" cy="0" r="1" gradientUnits="userSpaceOnUse" gradientTransform="translate(93.1478 8.63597) rotate(39.2894) scale(1.62495 5.9528)">
<stop stop-color="#FFC71D"/>
<stop offset="0.08" stop-color="#DCAC19"/>
<stop offset="0.22" stop-color="#A37F12"/>
<stop offset="0.36" stop-color="#71580D"/>
<stop offset="0.5" stop-color="#483808"/>
<stop offset="0.64" stop-color="#292005"/>
<stop offset="0.77" stop-color="#120E02"/>
<stop offset="0.89" stop-color="#050401"/>
<stop offset="1"/>
</radialGradient>
<radialGradient id="paint3_radial_1402_138" cx="0" cy="0" r="1" gradientUnits="userSpaceOnUse" gradientTransform="translate(63.9209 -1.6738) rotate(15.7951) scale(1.63698 5.96498)">
<stop stop-color="#FFC71D"/>
<stop offset="0.08" stop-color="#DCAC19"/>
<stop offset="0.22" stop-color="#A37F12"/>
<stop offset="0.36" stop-color="#71580D"/>
<stop offset="0.5" stop-color="#483808"/>
<stop offset="0.64" stop-color="#292005"/>
<stop offset="0.77" stop-color="#120E02"/>
<stop offset="0.89" stop-color="#050401"/>
<stop offset="1"/>
</radialGradient>
<radialGradient id="paint4_radial_1402_138" cx="0" cy="0" r="1" gradientUnits="userSpaceOnUse" gradientTransform="translate(50.305 29.7851) rotate(-5.22488) scale(1.63659 5.96359)">
<stop stop-color="#FFC71D"/>
<stop offset="0.08" stop-color="#DCAC19"/>
<stop offset="0.22" stop-color="#A37F12"/>
<stop offset="0.36" stop-color="#71580D"/>
<stop offset="0.5" stop-color="#483808"/>
<stop offset="0.64" stop-color="#292005"/>
<stop offset="0.77" stop-color="#120E02"/>
<stop offset="0.89" stop-color="#050401"/>
<stop offset="1"/>
</radialGradient>
<radialGradient id="paint5_radial_1402_138" cx="0" cy="0" r="1" gradientUnits="userSpaceOnUse" gradientTransform="translate(122.85 63.7024) rotate(110.556) scale(1.95392 6.18296)">
<stop stop-color="#FFC71D"/>
<stop offset="0.08" stop-color="#DCAC19"/>
<stop offset="0.22" stop-color="#A37F12"/>
<stop offset="0.36" stop-color="#71580D"/>
<stop offset="0.5" stop-color="#483808"/>
<stop offset="0.64" stop-color="#292005"/>
<stop offset="0.77" stop-color="#120E02"/>
<stop offset="0.89" stop-color="#050401"/>
<stop offset="1"/>
</radialGradient>
<radialGradient id="paint6_radial_1402_138" cx="0" cy="0" r="1" gradientUnits="userSpaceOnUse" gradientTransform="translate(102.15 51.341) rotate(85.9144) scale(1.11774 4.12486)">
<stop stop-color="#FFC71D"/>
<stop offset="0.08" stop-color="#DCAC19"/>
<stop offset="0.22" stop-color="#A37F12"/>
<stop offset="0.36" stop-color="#71580D"/>
<stop offset="0.5" stop-color="#483808"/>
<stop offset="0.64" stop-color="#292005"/>
<stop offset="0.77" stop-color="#120E02"/>
<stop offset="0.89" stop-color="#050401"/>
<stop offset="1"/>
</radialGradient>
<radialGradient id="paint7_radial_1402_138" cx="0" cy="0" r="1" gradientUnits="userSpaceOnUse" gradientTransform="translate(103.056 84.445) rotate(147.825) scale(1.1406 4.15621)">
<stop stop-color="#FFC71D"/>
<stop offset="0.08" stop-color="#DCAC19"/>
<stop offset="0.22" stop-color="#A37F12"/>
<stop offset="0.36" stop-color="#71580D"/>
<stop offset="0.5" stop-color="#483808"/>
<stop offset="0.64" stop-color="#292005"/>
<stop offset="0.77" stop-color="#120E02"/>
<stop offset="0.89" stop-color="#050401"/>
<stop offset="1"/>
</radialGradient>
<radialGradient id="paint8_radial_1402_138" cx="0" cy="0" r="1" gradientUnits="userSpaceOnUse" gradientTransform="translate(89.8591 92.8173) rotate(171.87) scale(1.12622 4.18954)">
<stop stop-color="#FFC71D"/>
<stop offset="0.08" stop-color="#DCAC19"/>
<stop offset="0.22" stop-color="#A37F12"/>
<stop offset="0.36" stop-color="#71580D"/>
<stop offset="0.5" stop-color="#483808"/>
<stop offset="0.64" stop-color="#292005"/>
<stop offset="0.77" stop-color="#120E02"/>
<stop offset="0.89" stop-color="#050401"/>
<stop offset="1"/>
</radialGradient>
<radialGradient id="paint9_radial_1402_138" cx="0" cy="0" r="1" gradientUnits="userSpaceOnUse" gradientTransform="translate(72.7456 86.0855) rotate(-140.71) scale(1.13202 4.10779)">
<stop stop-color="#FFC71D"/>
<stop offset="0.08" stop-color="#DCAC19"/>
<stop offset="0.22" stop-color="#A37F12"/>
<stop offset="0.36" stop-color="#71580D"/>
<stop offset="0.5" stop-color="#483808"/>
<stop offset="0.64" stop-color="#292005"/>
<stop offset="0.77" stop-color="#120E02"/>
<stop offset="0.89" stop-color="#050401"/>
<stop offset="1"/>
</radialGradient>
<radialGradient id="paint10_radial_1402_138" cx="0" cy="0" r="1" gradientUnits="userSpaceOnUse" gradientTransform="translate(107.604 104.052) rotate(158.963) scale(0.700076 2.64513)">
<stop stop-color="#FFC71D"/>
<stop offset="0.08" stop-color="#DCAC19"/>
<stop offset="0.22" stop-color="#A37F12"/>
<stop offset="0.36" stop-color="#71580D"/>
<stop offset="0.5" stop-color="#483808"/>
<stop offset="0.64" stop-color="#292005"/>
<stop offset="0.77" stop-color="#120E02"/>
<stop offset="0.89" stop-color="#050401"/>
<stop offset="1"/>
</radialGradient>
<radialGradient id="paint11_radial_1402_138" cx="0" cy="0" r="1" gradientUnits="userSpaceOnUse" gradientTransform="translate(49.4873 84.7951) rotate(-99.4623) scale(0.917207 3.0243)">
<stop stop-color="#FFC71D"/>
<stop offset="0.08" stop-color="#DCAC19"/>
<stop offset="0.22" stop-color="#A37F12"/>
<stop offset="0.36" stop-color="#71580D"/>
<stop offset="0.5" stop-color="#483808"/>
<stop offset="0.64" stop-color="#292005"/>
<stop offset="0.77" stop-color="#120E02"/>
<stop offset="0.89" stop-color="#050401"/>
<stop offset="1"/>
</radialGradient>
<radialGradient id="paint12_radial_1402_138" cx="0" cy="0" r="1" gradientUnits="userSpaceOnUse" gradientTransform="translate(83.3562 36.2568) rotate(37.4277) scale(1.14522 4.17306)">
<stop stop-color="#FFC71D"/>
<stop offset="0.08" stop-color="#DCAC19"/>
<stop offset="0.22" stop-color="#A37F12"/>
<stop offset="0.36" stop-color="#71580D"/>
<stop offset="0.5" stop-color="#483808"/>
<stop offset="0.64" stop-color="#292005"/>
<stop offset="0.77" stop-color="#120E02"/>
<stop offset="0.89" stop-color="#050401"/>
<stop offset="1"/>
</radialGradient>
<radialGradient id="paint13_radial_1402_138" cx="0" cy="0" r="1" gradientUnits="userSpaceOnUse" gradientTransform="translate(70.47 20.8159) rotate(24.7752) scale(1.1404 4.15551)">
<stop stop-color="#FFC71D"/>
<stop offset="0.08" stop-color="#DCAC19"/>
<stop offset="0.22" stop-color="#A37F12"/>
<stop offset="0.36" stop-color="#71580D"/>
<stop offset="0.5" stop-color="#483808"/>
<stop offset="0.64" stop-color="#292005"/>
<stop offset="0.77" stop-color="#120E02"/>
<stop offset="0.89" stop-color="#050401"/>
<stop offset="1"/>
</radialGradient>
<radialGradient id="paint14_radial_1402_138" cx="0" cy="0" r="1" gradientUnits="userSpaceOnUse" gradientTransform="translate(63.3973 43.5904) rotate(0.43505) scale(1.1404 4.15551)">
<stop stop-color="#FFC71D"/>
<stop offset="0.08" stop-color="#DCAC19"/>
<stop offset="0.22" stop-color="#A37F12"/>
<stop offset="0.36" stop-color="#71580D"/>
<stop offset="0.5" stop-color="#483808"/>
<stop offset="0.64" stop-color="#292005"/>
<stop offset="0.77" stop-color="#120E02"/>
<stop offset="0.89" stop-color="#050401"/>
<stop offset="1"/>
</radialGradient>
<radialGradient id="paint15_radial_1402_138" cx="0" cy="0" r="1" gradientUnits="userSpaceOnUse" gradientTransform="translate(52.0255 65.4921) rotate(-63.4349) scale(0.890354 3.66826)">
<stop stop-color="#FFC71D"/>
<stop offset="0.08" stop-color="#DCAC19"/>
<stop offset="0.22" stop-color="#A37F12"/>
<stop offset="0.36" stop-color="#71580D"/>
<stop offset="0.5" stop-color="#483808"/>
<stop offset="0.64" stop-color="#292005"/>
<stop offset="0.77" stop-color="#120E02"/>
<stop offset="0.89" stop-color="#050401"/>
<stop offset="1"/>
</radialGradient>
<radialGradient id="paint16_radial_1402_138" cx="0" cy="0" r="1" gradientUnits="userSpaceOnUse" gradientTransform="translate(39.1646 28.3183) rotate(-21.0375) scale(1.10938 4.19164)">
<stop stop-color="#FFC71D"/>
<stop offset="0.08" stop-color="#DCAC19"/>
<stop offset="0.22" stop-color="#A37F12"/>
<stop offset="0.36" stop-color="#71580D"/>
<stop offset="0.5" stop-color="#483808"/>
<stop offset="0.64" stop-color="#292005"/>
<stop offset="0.77" stop-color="#120E02"/>
<stop offset="0.89" stop-color="#050401"/>
<stop offset="1"/>
</radialGradient>
<radialGradient id="paint17_radial_1402_138" cx="0" cy="0" r="1" gradientUnits="userSpaceOnUse" gradientTransform="translate(37.3662 53.3236) rotate(-28.6105) scale(0.997999 4.03014)">
<stop stop-color="#FFC71D"/>
<stop offset="0.08" stop-color="#DCAC19"/>
<stop offset="0.22" stop-color="#A37F12"/>
<stop offset="0.36" stop-color="#71580D"/>
<stop offset="0.5" stop-color="#483808"/>
<stop offset="0.64" stop-color="#292005"/>
<stop offset="0.77" stop-color="#120E02"/>
<stop offset="0.89" stop-color="#050401"/>
<stop offset="1"/>
</radialGradient>
<radialGradient id="paint18_radial_1402_138" cx="0" cy="0" r="1" gradientUnits="userSpaceOnUse" gradientTransform="translate(31.0678 87.5385) rotate(-91.075) scale(1.24671 4.4169)">
<stop stop-color="#FFC71D"/>
<stop offset="0.08" stop-color="#DCAC19"/>
<stop offset="0.22" stop-color="#A37F12"/>
<stop offset="0.36" stop-color="#71580D"/>
<stop offset="0.5" stop-color="#483808"/>
<stop offset="0.64" stop-color="#292005"/>
<stop offset="0.77" stop-color="#120E02"/>
<stop offset="0.89" stop-color="#050401"/>
<stop offset="1"/>
</radialGradient>
<radialGradient id="paint19_radial_1402_138" cx="0" cy="0" r="1" gradientUnits="userSpaceOnUse" gradientTransform="translate(44.5165 101.948) rotate(-113.199) scale(1.21318 4.4553)">
<stop stop-color="#FFC71D"/>
<stop offset="0.08" stop-color="#DCAC19"/>
<stop offset="0.22" stop-color="#A37F12"/>
<stop offset="0.36" stop-color="#71580D"/>
<stop offset="0.5" stop-color="#483808"/>
<stop offset="0.64" stop-color="#292005"/>
<stop offset="0.77" stop-color="#120E02"/>
<stop offset="0.89" stop-color="#050401"/>
<stop offset="1"/>
</radialGradient>
<radialGradient id="paint20_radial_1402_138" cx="0" cy="0" r="1" gradientUnits="userSpaceOnUse" gradientTransform="translate(76.3895 97.5672) rotate(-153.435) scale(1.2465 4.48739)">
<stop stop-color="#FFC71D"/>
<stop offset="0.08" stop-color="#DCAC19"/>
<stop offset="0.22" stop-color="#A37F12"/>
<stop offset="0.36" stop-color="#71580D"/>
<stop offset="0.5" stop-color="#483808"/>
<stop offset="0.64" stop-color="#292005"/>
<stop offset="0.77" stop-color="#120E02"/>
<stop offset="0.89" stop-color="#050401"/>
<stop offset="1"/>
</radialGradient>
<radialGradient id="paint21_radial_1402_138" cx="0" cy="0" r="1" gradientUnits="userSpaceOnUse" gradientTransform="translate(96.334 124.745) rotate(170.225) scale(1.6125 4.61333)">
<stop stop-color="#FFC71D"/>
<stop offset="0.08" stop-color="#DCAC19"/>
<stop offset="0.22" stop-color="#A37F12"/>
<stop offset="0.36" stop-color="#71580D"/>
<stop offset="0.5" stop-color="#483808"/>
<stop offset="0.64" stop-color="#292005"/>
<stop offset="0.77" stop-color="#120E02"/>
<stop offset="0.89" stop-color="#050401"/>
<stop offset="1"/>
</radialGradient>
<radialGradient id="paint22_radial_1402_138" cx="0" cy="0" r="1" gradientUnits="userSpaceOnUse" gradientTransform="translate(112.281 27.1477) scale(6.15036 6.15036)">
<stop offset="0.73" stop-color="#FF9696"/>
<stop offset="0.75" stop-color="#DE8383"/>
<stop offset="0.78" stop-color="#9C5C5C"/>
<stop offset="0.82" stop-color="#643B3B"/>
<stop offset="0.85" stop-color="#392121"/>
<stop offset="0.88" stop-color="#1A0F0F"/>
<stop offset="0.91" stop-color="#070404"/>
<stop offset="0.92"/>
</radialGradient>
<radialGradient id="paint23_radial_1402_138" cx="0" cy="0" r="1" gradientUnits="userSpaceOnUse" gradientTransform="translate(10.7452 12.7071) scale(8.24362 8.24362)">
<stop offset="0.47" stop-color="#2873F4"/>
<stop offset="0.49" stop-color="#2469DE"/>
<stop offset="0.58" stop-color="#1A499C"/>
<stop offset="0.67" stop-color="#102F64"/>
<stop offset="0.75" stop-color="#091B39"/>
<stop offset="0.82" stop-color="#040C1A"/>
<stop offset="0.88" stop-color="#010307"/>
<stop offset="0.92"/>
</radialGradient>
<radialGradient id="paint24_radial_1402_138" cx="0" cy="0" r="1" gradientUnits="userSpaceOnUse" gradientTransform="translate(43.0263 38.1168) scale(4.47969)">
<stop offset="0.47" stop-color="#2873F4"/>
<stop offset="0.49" stop-color="#2469DE"/>
<stop offset="0.58" stop-color="#1A499C"/>
<stop offset="0.67" stop-color="#102F64"/>
<stop offset="0.75" stop-color="#091B39"/>
<stop offset="0.82" stop-color="#040C1A"/>
<stop offset="0.88" stop-color="#010307"/>
<stop offset="0.92"/>
</radialGradient>
<radialGradient id="paint25_radial_1402_138" cx="0" cy="0" r="1" gradientUnits="userSpaceOnUse" gradientTransform="translate(16.1994 96.0407) scale(5.43688)">
<stop offset="0.47" stop-color="#2873F4"/>
<stop offset="0.49" stop-color="#2469DE"/>
<stop offset="0.58" stop-color="#1A499C"/>
<stop offset="0.67" stop-color="#102F64"/>
<stop offset="0.75" stop-color="#091B39"/>
<stop offset="0.82" stop-color="#040C1A"/>
<stop offset="0.88" stop-color="#010307"/>
<stop offset="0.92"/>
</radialGradient>
<linearGradient id="paint26_linear_1402_138" x1="75.64" y1="63.3684" x2="54.3077" y2="55.6969" gradientUnits="userSpaceOnUse">
<stop stop-color="#899BB2"/>
<stop offset="0.05" stop-color="#94A5B9"/>
<stop offset="0.25" stop-color="#BBC5D2"/>
<stop offset="0.45" stop-color="#D8DEE6"/>
<stop offset="0.64" stop-color="#EEF0F4"/>
<stop offset="0.83" stop-color="#FBFBFC"/>
<stop offset="1" stop-color="white"/>
</linearGradient>
<linearGradient id="paint27_linear_1402_138" x1="53.0799" y1="47.6179" x2="77.6655" y2="82.9039" gradientUnits="userSpaceOnUse">
<stop stop-color="#9DC4E8"/>
<stop offset="0.645833" stop-color="#DCEAF7"/>
<stop offset="1" stop-color="white"/>
</linearGradient>
<linearGradient id="paint28_linear_1402_138" x1="74.607" y1="62.6662" x2="101.675" y2="98.1447" gradientUnits="userSpaceOnUse">
<stop stop-color="#B29696"/>
<stop offset="0.2" stop-color="#CDBBBB"/>
<stop offset="0.41" stop-color="#E3D8D8"/>
<stop offset="0.62" stop-color="#F2EEEE"/>
<stop offset="0.81" stop-color="#FCFBFB"/>
<stop offset="1" stop-color="white"/>
</linearGradient>
<linearGradient id="paint29_linear_1402_138" x1="75.1438" y1="63.4132" x2="100.942" y2="97.2244" gradientUnits="userSpaceOnUse">
<stop stop-color="white"/>
<stop offset="1" stop-color="#9DC4E8"/>
</linearGradient>
<radialGradient id="paint30_radial_1402_138" cx="0" cy="0" r="1" gradientUnits="userSpaceOnUse" gradientTransform="translate(71.6311 72.9238) rotate(30.19) scale(17.1686 30.2442)">
<stop stop-color="#FFCC55"/>
<stop offset="0.04" stop-color="#ECBC4F"/>
<stop offset="0.14" stop-color="#B5913C"/>
<stop offset="0.26" stop-color="#856A2C"/>
<stop offset="0.37" stop-color="#5C491F"/>
<stop offset="0.49" stop-color="#3B2F14"/>
<stop offset="0.61" stop-color="#211A0B"/>
<stop offset="0.73" stop-color="#0E0C05"/>
<stop offset="0.86" stop-color="#040301"/>
<stop offset="1"/>
</radialGradient>
<radialGradient id="paint31_radial_1402_138" cx="0" cy="0" r="1" gradientUnits="userSpaceOnUse" gradientTransform="translate(71.8058 72.409) rotate(45.6496) scale(20.8579 80.9207)">
<stop stop-color="#FFC14D"/>
<stop offset="0.08" stop-color="#C3933B"/>
<stop offset="0.16" stop-color="#886729"/>
<stop offset="0.24" stop-color="#58421A"/>
<stop offset="0.32" stop-color="#32250F"/>
<stop offset="0.39" stop-color="#161107"/>
<stop offset="0.45" stop-color="#060402"/>
<stop offset="0.5"/>
</radialGradient>
<radialGradient id="paint32_radial_1402_138" cx="0" cy="0" r="1" gradientUnits="userSpaceOnUse" gradientTransform="translate(72.782 71.9933) rotate(50.2914) scale(10.7173 44.4038)">
<stop stop-color="#FFD34D"/>
<stop offset="0.08" stop-color="#C3A13B"/>
<stop offset="0.16" stop-color="#887129"/>
<stop offset="0.24" stop-color="#58481A"/>
<stop offset="0.32" stop-color="#32290F"/>
<stop offset="0.39" stop-color="#161207"/>
<stop offset="0.45" stop-color="#060502"/>
<stop offset="0.5"/>
</radialGradient>
<radialGradient id="paint33_radial_1402_138" cx="0" cy="0" r="1" gradientUnits="userSpaceOnUse" gradientTransform="translate(75.0483 67.0117) rotate(49.2046) scale(12.3784 48.9298)">
<stop stop-color="#FFBB1D"/>
<stop offset="0.03" stop-color="#DCA219"/>
<stop offset="0.09" stop-color="#A37712"/>
<stop offset="0.15" stop-color="#71530D"/>
<stop offset="0.21" stop-color="#483508"/>
<stop offset="0.26" stop-color="#291E05"/>
<stop offset="0.31" stop-color="#120D02"/>
<stop offset="0.37" stop-color="#050301"/>
<stop offset="0.41"/>
</radialGradient>
<radialGradient id="paint34_radial_1402_138" cx="0" cy="0" r="1" gradientUnits="userSpaceOnUse" gradientTransform="translate(73.9324 68.8056) rotate(42.9837) scale(13.7708 47.6144)">
<stop stop-color="#D6FF1D"/>
<stop offset="0.03" stop-color="#B9DC19"/>
<stop offset="0.1" stop-color="#88A312"/>
<stop offset="0.16" stop-color="#5F710D"/>
<stop offset="0.22" stop-color="#3D4808"/>
<stop offset="0.28" stop-color="#222905"/>
<stop offset="0.34" stop-color="#0F1202"/>
<stop offset="0.4" stop-color="#040501"/>
<stop offset="0.44"/>
</radialGradient>
<radialGradient id="paint35_radial_1402_138" cx="0" cy="0" r="1" gradientUnits="userSpaceOnUse" gradientTransform="translate(73.6549 67.9949) rotate(53.4606) scale(13.9872 59.625)">
<stop stop-color="#FFF01D"/>
<stop offset="0.03" stop-color="#DCCF19"/>
<stop offset="0.1" stop-color="#A39912"/>
<stop offset="0.16" stop-color="#716A0D"/>
<stop offset="0.22" stop-color="#484408"/>
<stop offset="0.28" stop-color="#292605"/>
<stop offset="0.34" stop-color="#121102"/>
<stop offset="0.4" stop-color="#050401"/>
<stop offset="0.44"/>
</radialGradient>
<radialGradient id="paint36_radial_1402_138" cx="0" cy="0" r="1" gradientUnits="userSpaceOnUse" gradientTransform="translate(74.5911 67.8444) rotate(70.475) scale(15.6863 70.548)">
<stop offset="0.12" stop-color="#FFB41D"/>
<stop offset="0.19" stop-color="#CA8F17"/>
<stop offset="0.27" stop-color="#9B6E12"/>
<stop offset="0.35" stop-color="#72500D"/>
<stop offset="0.43" stop-color="#4E3709"/>
<stop offset="0.52" stop-color="#322306"/>
<stop offset="0.61" stop-color="#1C1403"/>
<stop offset="0.72" stop-color="#0C0901"/>
<stop offset="0.83" stop-color="#030200"/>
<stop offset="1"/>
</radialGradient>
<radialGradient id="paint37_radial_1402_138" cx="0" cy="0" r="1" gradientUnits="userSpaceOnUse" gradientTransform="translate(73.3073 69.4384) rotate(75.3261) scale(10.9414 48.1305)">
<stop offset="0.12" stop-color="#FFBD54"/>
<stop offset="0.13" stop-color="#F2B450"/>
<stop offset="0.2" stop-color="#C08E3F"/>
<stop offset="0.27" stop-color="#926C30"/>
<stop offset="0.34" stop-color="#6B4F23"/>
<stop offset="0.42" stop-color="#4A3718"/>
<stop offset="0.5" stop-color="#2F230F"/>
<stop offset="0.59" stop-color="#1A1309"/>
<stop offset="0.69" stop-color="#0B0804"/>
<stop offset="0.81" stop-color="#030201"/>
<stop offset="1"/>
</radialGradient>
<radialGradient id="paint38_radial_1402_138" cx="0" cy="0" r="1" gradientUnits="userSpaceOnUse" gradientTransform="translate(73.6322 67.7448) rotate(99.8658) scale(10.7116 14.9176)">
<stop offset="0.14" stop-color="#FFE3E3"/>
<stop offset="0.16" stop-color="#E7CECE"/>
<stop offset="0.22" stop-color="#B7A3A3"/>
<stop offset="0.28" stop-color="#8C7C7C"/>
<stop offset="0.35" stop-color="#665B5B"/>
<stop offset="0.42" stop-color="#463F3F"/>
<stop offset="0.5" stop-color="#2C2828"/>
<stop offset="0.58" stop-color="#191616"/>
<stop offset="0.68" stop-color="#0B0909"/>
<stop offset="0.79" stop-color="#020202"/>
<stop offset="1"/>
</radialGradient>
</defs>
</svg>
